<svg xmlns="http://www.w3.org/2000/svg" viewBox="0 0 679.45 175.61">
  <g class="one">
    <path d="M82.54,70.54a55.14,55.14,0,0,0-27.82-7.13,54.83,54.83,0,0,0-27.67,7.13A52.45,52.45,0,0,0,7.28,90.32,56.23,56.23,0,0,0,0,118.91a56.64,56.64,0,0,0,7.28,28.66,52.28,52.28,0,0,0,19.77,19.85,54.83,54.83,0,0,0,27.67,7.13,54.84,54.84,0,0,0,27.67-7.13,52.3,52.3,0,0,0,19.77-19.85,56.67,56.67,0,0,0,7.28-28.66,56.72,56.72,0,0,0-7.21-28.59A51.93,51.93,0,0,0,82.54,70.54Zm-7.43,71Q67.44,150,54.72,150q-12.87,0-20.46-8.43t-7.59-22.68q0-14.41,7.59-22.76t20.46-8.35q12.87,0,20.46,8.43t7.59,22.69Q82.77,133.16,75.11,141.59Z"/>
    <polygon points="187.46 132.24 143.62 65.1 117.41 65.1 117.41 173.47 143.62 173.47 143.62 106.95 187.46 173.47 213.67 173.47 213.67 65.1 187.46 65.1 187.46 132.24"/>
    <polyline points="245.98 65.1 225.01 65.1 225.01 87.98 225.01 173.47 296.86 173.47 296.86 152.58 251.22 152.58 251.22 129.96 291.05 129.96 291.05 110.42 277.94 110.42 259.86 110.42 251.2 110.42 251.2 92.83 251.22 92.83 251.22 87.98 277.94 87.98 296.86 87.98 296.86 66.35 296.86 65.1 258.35 65.1"/>
  </g>
  <g class="brick">
    <path d="M419.74,56.14q6.59-8.37,6.59-20.31a35.32,35.32,0,0,0-4.5-17.91A31.09,31.09,0,0,0,408.34,5.59q-9-4.5-22-4.5H341V110.74h26.52V69.33h6l23.73,41.41h29.31L400.59,67.62Q413.15,64.52,419.74,56.14Zm-24.12-8.45Q391.9,51.18,384,51.18H367.55V23.42H384q7.75,0,11.56,3.72t3.8,10.24Q399.35,44.2,395.62,47.69Z"/>
    <rect x="432.85" y="1.09" width="26.52" height="109.65"/>
    <path d="M520.47,24.51a26.67,26.67,0,0,1,15.28,4.35,25.8,25.8,0,0,1,9.54,11.94h28.07Q569.32,22,555.6,11T520.93,0q-16,0-28.07,7.06a47.9,47.9,0,0,0-18.69,19.78q-6.59,12.72-6.59,29t6.59,29a47.86,47.86,0,0,0,18.69,19.77q12.09,7.06,28.07,7.06,20.94,0,34.67-11.09t17.76-29.7H545.29a25.89,25.89,0,0,1-9.54,11.79A26.65,26.65,0,0,1,520.47,87q-11.63,0-18.77-8.45t-7.13-22.72q0-14.27,7.13-22.8T520.47,24.51Z"/>
    <polygon points="677.27 1.09 645.48 1.09 607.94 49.32 607.94 1.09 581.42 1.09 581.42 110.74 607.94 110.74 607.94 61.58 645.16 110.74 677.27 110.74 633.07 54.75 677.27 1.09"/>
    <path d="M327.49,63.55a27.49,27.49,0,0,0-15.75-9.62,24.31,24.31,0,0,0,13.81-8.61q5.28-6.59,5.28-16.53,0-13.51-9.16-20.8C316,3.45,308.05,1.07,298,.76l-.17-.07H251.2V46.34h26.73V65.1h18.93V88H251.22v22.2H291v.24h5.79c.29,0,.56-.07.84-.08v.06q17-.16,26.25-7.9,9.39-7.91,9.39-22A26.34,26.34,0,0,0,327.49,63.55Zm-35.9-17.23H277.94V22h13c6.28,0,11.87,4.49,12.71,10.6,0,.39.06.78.06,1.19,0,.2,0,.39,0,.59A12.15,12.15,0,0,1,291.59,46.32Z"/>
  </g>
  <g class="at_a_time">
    <path d="M358.2,136.4a16.51,16.51,0,0,1,6.11,8.64V133.67h5.23v41.41h-5.23V163.71a16.54,16.54,0,0,1-6.11,8.64,17.61,17.61,0,0,1-10.73,3.26,19.6,19.6,0,0,1-10-2.58,17.53,17.53,0,0,1-6.9-7.39,27.12,27.12,0,0,1,0-22.6,17.42,17.42,0,0,1,6.86-7.36,19.83,19.83,0,0,1,10.09-2.54A17.61,17.61,0,0,1,358.2,136.4Zm-20.55,5.88q-4.21,4.44-4.21,12.1t4.21,12.1q4.21,4.43,11.19,4.43a15.56,15.56,0,0,0,7.93-2,14.41,14.41,0,0,0,5.54-5.81,19.76,19.76,0,0,0,0-17.37,14.43,14.43,0,0,0-5.54-5.8,15.49,15.49,0,0,0-7.93-2Q341.86,137.84,337.65,142.28Z" />
    <path d="M402.46,170.38v4.7h-4.93q-6,0-9-2.84t-3-9.6V138.3h-6.3v-4.63h6.3V123.21H391v10.47h11.38v4.63H391v24.42q0,4.4,1.59,6t5.61,1.63Z"/>
    <path d="M464.24,136.4a16.51,16.51,0,0,1,6.11,8.64V133.67h5.23v41.41h-5.23V163.71a16.54,16.54,0,0,1-6.11,8.64,17.61,17.61,0,0,1-10.73,3.26,19.6,19.6,0,0,1-10-2.58,17.53,17.53,0,0,1-6.9-7.39,27.12,27.12,0,0,1,0-22.6,17.42,17.42,0,0,1,6.86-7.36,19.83,19.83,0,0,1,10.09-2.54A17.61,17.61,0,0,1,464.24,136.4Zm-20.55,5.88q-4.21,4.44-4.21,12.1t4.21,12.1q4.21,4.43,11.19,4.43a15.56,15.56,0,0,0,7.93-2,14.41,14.41,0,0,0,5.54-5.81,19.76,19.76,0,0,0,0-17.37,14.43,14.43,0,0,0-5.54-5.8,15.49,15.49,0,0,0-7.93-2Q447.89,137.84,443.68,142.28Z" />
    <path d="M530.79,170.38v4.7h-4.93q-6,0-9-2.84t-3-9.6V138.3h-6.3v-4.63H514V123.21h5.39v10.47h11.38v4.63H519.34v24.42q0,4.4,1.59,6t5.61,1.63Z" />
    <path d="M542,118.73a4.11,4.11,0,0,1,2.84-1,4,4,0,0,1,2.81,1,3.46,3.46,0,0,1,1.06,2.66,3.35,3.35,0,0,1-1.06,2.58,4,4,0,0,1-2.81,1,4.08,4.08,0,0,1-2.84-1,3.29,3.29,0,0,1-1.1-2.58A3.4,3.4,0,0,1,542,118.73Zm5.5,14.94v41.41h-5.39V133.67Z"/>
    <path d="M623.44,137.5q4.43,4.59,4.43,13.47v24.12h-5.31V151.34q0-6.67-3.22-10.23a11.31,11.31,0,0,0-8.83-3.57,12.24,12.24,0,0,0-9.56,3.95q-3.56,3.94-3.56,11.6v22h-5.23V151.34q0-6.67-3.22-10.23a11.31,11.31,0,0,0-8.83-3.57,12.24,12.24,0,0,0-9.56,3.95q-3.56,3.94-3.56,11.6v22h-5.39V133.67H567v9.86a13.8,13.8,0,0,1,5.5-7.93,16,16,0,0,1,9.22-2.69,15.5,15.5,0,0,1,9.4,2.88,15,15,0,0,1,5.46,8.49,15.3,15.3,0,0,1,5.84-8.45,16.14,16.14,0,0,1,9.48-2.93A15.39,15.39,0,0,1,623.44,137.5Z" />
    <path d="M669.06,168.41a11.28,11.28,0,0,0,4.55-7.58h5.61a16.85,16.85,0,0,1-6.3,10.69q-5.16,4.1-13,4.1a21.3,21.3,0,0,1-10.51-2.54,17.75,17.75,0,0,1-7.17-7.35,26.22,26.22,0,0,1,0-22.68,17.81,17.81,0,0,1,7.17-7.36,21.36,21.36,0,0,1,10.51-2.54,20.81,20.81,0,0,1,10.5,2.54,17.28,17.28,0,0,1,6.75,6.79,19,19,0,0,1,2.31,9.25,22.9,22.9,0,0,1-.3,3.87H644.86a17.46,17.46,0,0,0,2.16,8.76,13,13,0,0,0,5.42,5.2,15.93,15.93,0,0,0,7.21,1.67A15.38,15.38,0,0,0,669.06,168.41Zm-16.53-29.28a13.17,13.17,0,0,0-5.42,5.11,17.43,17.43,0,0,0-2.24,8.61h29.28a15.28,15.28,0,0,0-1.67-8.58,12.43,12.43,0,0,0-5.31-5.15,16.86,16.86,0,0,0-14.64,0Z" />
  </g>
</svg>
