<svg id="Layer_1" data-name="Layer 1" xmlns="http://www.w3.org/2000/svg" viewBox="0 0 241.13 84.98" fill="#c63a3d"><title>One_brick_logo</title><path class="cls-1" d="M143,115.45H29.17v-62H143Zm-108.82-5H138v-52H34.17Z" transform="translate(-29.17 -30.53)"/><path class="cls-1" d="M67.77,85.21q0,9.59-3.59,14.74A11.78,11.78,0,0,1,53.9,105.1,11.81,11.81,0,0,1,43.6,100Q40,94.82,40,85.15t3.59-14.7A11.88,11.88,0,0,1,54,65.34a11.72,11.72,0,0,1,10.25,5.14Q67.77,75.62,67.77,85.21Zm-20.42,0q0,6.6,1.67,10.06t4.89,3.46q6.5,0,6.5-13.53T54,71.68q-3.28,0-4.94,3.45T47.35,85.21Z" transform="translate(-29.17 -30.53)"/><path class="cls-1" d="M98.07,104.57H89.3l-11.94-28H77a33.92,33.92,0,0,1,.66,6.87v21.11H71V65.95h8.82L91.68,93.63H92a37.6,37.6,0,0,1-.5-6.6V65.95h6.6Z" transform="translate(-29.17 -30.53)"/><path class="cls-1" d="M119.91,104.57H102.5V65.95h17.41v6.21H109.69v9.19h9.48v6.23h-9.48v10.7h10.22Z" transform="translate(-29.17 -30.53)"/><path class="cls-1" d="M160.41,115.51a3.31,3.31,0,0,1-2.72-1.24,5.41,5.41,0,0,1-1-3.49,12.45,12.45,0,0,1,.85-4.61,8.32,8.32,0,0,1,2.34-3.4,5,5,0,0,1,3.27-1.25,3.47,3.47,0,0,1,3.37,2.17h.12l.76-1.93h2.2l-2.88,13.5h-2.22l.26-2.15h-.07A5.48,5.48,0,0,1,160.41,115.51Zm1-2.32a2.83,2.83,0,0,0,2-.95,7.13,7.13,0,0,0,1.59-2.53,9.41,9.41,0,0,0,.62-3.47,2.52,2.52,0,0,0-.57-1.73,1.9,1.9,0,0,0-1.5-.65,2.71,2.71,0,0,0-2,.94,6.69,6.69,0,0,0-1.46,2.56,10.35,10.35,0,0,0-.55,3.35,2.94,2.94,0,0,0,.49,1.86A1.66,1.66,0,0,0,161.46,113.19Z" transform="translate(-29.17 -30.53)"/><path class="cls-1" d="M175.42,113.19a5.31,5.31,0,0,0,1.84-.38V115a5.3,5.3,0,0,1-1.16.37,6.92,6.92,0,0,1-1.46.16q-3.35,0-3.34-3a7.63,7.63,0,0,1,.2-1.6l1.48-7h-2l.26-1.34,2.32-1,1.57-2.83h1.78l-.63,3h3.41l-.48,2.17h-3.38l-1.49,7a5,5,0,0,0-.16,1.12,1.14,1.14,0,0,0,.31.84A1.24,1.24,0,0,0,175.42,113.19Z" transform="translate(-29.17 -30.53)"/><path class="cls-1" d="M190.11,115.51a3.31,3.31,0,0,1-2.72-1.24,5.41,5.41,0,0,1-1-3.49,12.45,12.45,0,0,1,.85-4.61,8.32,8.32,0,0,1,2.34-3.4,5,5,0,0,1,3.27-1.25,3.47,3.47,0,0,1,3.37,2.17h.12l.76-1.93h2.2l-2.88,13.5h-2.22l.26-2.15h-.07A5.48,5.48,0,0,1,190.11,115.51Zm1-2.32a2.83,2.83,0,0,0,2-.95,7.13,7.13,0,0,0,1.59-2.53,9.41,9.41,0,0,0,.62-3.47,2.52,2.52,0,0,0-.57-1.73,1.9,1.9,0,0,0-1.5-.65,2.71,2.71,0,0,0-2,.94,6.69,6.69,0,0,0-1.46,2.56,10.35,10.35,0,0,0-.55,3.35,2.94,2.94,0,0,0,.49,1.86A1.66,1.66,0,0,0,191.16,113.19Z" transform="translate(-29.17 -30.53)"/><path class="cls-1" d="M211.47,113.19a5.31,5.31,0,0,0,1.84-.38V115a5.3,5.3,0,0,1-1.16.37,6.92,6.92,0,0,1-1.46.16q-3.35,0-3.34-3a7.63,7.63,0,0,1,.2-1.6l1.48-7h-2l.26-1.34,2.32-1,1.57-2.83H213l-.63,3h3.41l-.48,2.17h-3.38l-1.49,7a5,5,0,0,0-.16,1.12,1.14,1.14,0,0,0,.31.84A1.24,1.24,0,0,0,211.47,113.19Z" transform="translate(-29.17 -30.53)"/><path class="cls-1" d="M218.4,115.26h-2.88l2.88-13.5h2.87ZM219,98.44a1.9,1.9,0,0,1,.48-1.34,1.74,1.74,0,0,1,1.34-.51,1.63,1.63,0,0,1,1,.32,1.19,1.19,0,0,1,.4,1,1.88,1.88,0,0,1-.49,1.37,1.71,1.71,0,0,1-1.28.5,1.75,1.75,0,0,1-1.07-.32A1.16,1.16,0,0,1,219,98.44Z" transform="translate(-29.17 -30.53)"/><path class="cls-1" d="M231.52,101.52q2.69,0,3.1,2.87h.1a6.82,6.82,0,0,1,2.08-2.14,4.52,4.52,0,0,1,2.42-.73,3.17,3.17,0,0,1,2.47.93,3.77,3.77,0,0,1,.85,2.63,12.89,12.89,0,0,1-.27,2.21l-1.71,8h-2.87l1.75-8.2a9.8,9.8,0,0,0,.23-1.62q0-1.57-1.48-1.57a3.16,3.16,0,0,0-2.46,1.51,10,10,0,0,0-1.67,4l-1.23,5.87H230l1.75-8.2a8.19,8.19,0,0,0,.21-1.55q0-1.65-1.43-1.65a3.16,3.16,0,0,0-2.48,1.55,10.67,10.67,0,0,0-1.69,4.13l-1.2,5.73h-2.88l2.88-13.5h2.25l-.26,2.5h.11Q229,101.52,231.52,101.52Z" transform="translate(-29.17 -30.53)"/><path class="cls-1" d="M250,115.51a5.06,5.06,0,0,1-3.75-1.36,5.13,5.13,0,0,1-1.35-3.78,10.74,10.74,0,0,1,.95-4.5,7.72,7.72,0,0,1,2.56-3.22,6.15,6.15,0,0,1,3.62-1.14,4.74,4.74,0,0,1,3.06.89,3,3,0,0,1,1.09,2.51,3.89,3.89,0,0,1-2,3.47,11.1,11.1,0,0,1-5.79,1.25h-.53l0,.38v.35a3.07,3.07,0,0,0,.69,2.12,2.62,2.62,0,0,0,2.06.77,6.69,6.69,0,0,0,1.75-.23,12.42,12.42,0,0,0,2.05-.79v2.28a11.3,11.3,0,0,1-2.15.76A9.81,9.81,0,0,1,250,115.51Zm1.86-11.79a3.07,3.07,0,0,0-2.2,1,6,6,0,0,0-1.48,2.77h.35a8.09,8.09,0,0,0,3.59-.65,2,2,0,0,0,1.29-1.85,1.23,1.23,0,0,0-.39-1A1.69,1.69,0,0,0,251.83,103.72Z" transform="translate(-29.17 -30.53)"/><path class="cls-1" d="M270.3,92.53H127v-62H270.3ZM132,87.53H265.3v-52H132Z" transform="translate(-29.17 -30.53)"/><path class="cls-1" d="M149.18,42.48H159q6,0,8.77,2.34t2.75,7.44a10.17,10.17,0,0,1-1.45,5.61,5.86,5.86,0,0,1-4,2.73v.26a7.5,7.5,0,0,1,4.73,3.06,10.85,10.85,0,0,1,1.45,6q0,5.26-2.81,8.23a10.09,10.09,0,0,1-7.7,3H149.18ZM155.94,58h3.3a3.77,3.77,0,0,0,3.2-1.22,5.93,5.93,0,0,0,.92-3.62,4.71,4.71,0,0,0-1.06-3.45,4.59,4.59,0,0,0-3.33-1h-3Zm0,6v10.8h3.62a4,4,0,0,0,3.34-1.37,6.77,6.77,0,0,0,1.1-4.25Q164,64,159.45,64Z" transform="translate(-29.17 -30.53)"/><path class="cls-1" d="M181.4,66.07v15h-7.18V42.48h9.4q6,0,8.81,2.83t2.84,8.64q0,7.32-4.94,10.22l7.42,16.93h-7.69l-6.1-15Zm0-6.18h1.85a4.32,4.32,0,0,0,3.65-1.44A7,7,0,0,0,188,54.16q0-3-1.18-4.21a4.76,4.76,0,0,0-3.63-1.25h-1.8Z" transform="translate(-29.17 -30.53)"/><path class="cls-1" d="M200.18,81.1V42.48h6.76V81.1Z" transform="translate(-29.17 -30.53)"/><path class="cls-1" d="M225.54,48.21q-3.09,0-4.87,3.62T218.88,61.9q0,13.42,7,13.42a12.78,12.78,0,0,0,6.42-2v6.39a12.84,12.84,0,0,1-7.24,1.88,11.37,11.37,0,0,1-10-5.19q-3.5-5.19-3.5-14.6t3.61-14.66a11.49,11.49,0,0,1,10-5.26,14.06,14.06,0,0,1,4.05.58,16.22,16.22,0,0,1,4.16,2L231,50.38a21.12,21.12,0,0,0-2.54-1.49A6.48,6.48,0,0,0,225.54,48.21Z" transform="translate(-29.17 -30.53)"/><path class="cls-1" d="M259.46,81.1h-7.66l-6.34-16.51-2.88,2.88V81.1h-7.18V42.48h7.18V61.63l2.51-5.79,6.58-13.37h7.69L250.42,59.2Z" transform="translate(-29.17 -30.53)"/></svg>