<svg fill="#fff" class="logo" version="1.1" id="Layer_1" xmlns="http://www.w3.org/2000/svg" xmlns:xlink="http://www.w3.org/1999/xlink" x="80px" y="80px" width="250px" height="250px" viewBox="80 80 250 250" xml:space="preserve">
      <g>
      <g>
      <path d="M159.095,216.422c0,8.072-9.22,8.072-9.22,8.072h-4.59v11.555h-4.629v-16.145h4.392l-4.392-6.925v-4.629h9.22
      C149.875,208.351,159.095,208.351,159.095,216.422z M154.504,216.422c0-3.442-4.629-3.442-4.629-3.442h-3.72l4.313,6.885
      C151.695,219.708,154.504,219.114,154.504,216.422z"></path>
      <path d="M176.631,232.568h-9.378l-1.385,3.481h-4.986l11.041-27.698l11.08,27.698h-4.986L176.631,232.568z M174.811,227.978
      l-2.889-7.163l-2.849,7.163H174.811z"></path>
      <path d="M208.363,216.462c0,8.111-9.259,8.111-9.259,8.111h-4.63v11.556h-4.63v-27.778h9.26
      C199.104,208.351,208.363,208.351,208.363,216.462z M203.733,216.462c0-3.482-4.629-3.482-4.629-3.482h-4.63v6.965h4.63
      C199.104,219.945,203.733,219.945,203.733,216.462z"></path>
      <path d="M219.344,212.98v6.925h13.848v4.59h-13.848v6.925h13.848v4.63h-18.477v-27.698h18.477v4.629H219.344z"></path>
      <path d="M249.424,224.495h-3.76v11.555h-4.631v-27.698h9.221c0,0,9.26,0,9.26,8.071c0,4.472-2.85,6.449-5.342,7.359l5.658,12.268
      h-5.105L249.424,224.495z M245.665,219.905h4.59c0,0,4.631,0,4.631-3.482c0-3.442-4.631-3.442-4.631-3.442h-4.59V219.905z"></path>
      <path d="M104.407,266.502l3.245,3.284c-2.493,2.492-5.936,4.035-9.774,4.035c-7.637,0-13.849-6.212-13.849-13.849
      c0-7.638,6.212-13.85,13.849-13.85c3.839,0,7.281,1.543,9.774,4.076l-3.245,3.244c-1.662-1.662-3.997-2.691-6.53-2.691
      c-5.104,0-9.22,4.116-9.22,9.221s4.116,9.219,9.22,9.219C100.41,269.192,102.745,268.165,104.407,266.502z"></path>
      <path d="M123.882,262.268h-3.758v11.554h-4.63v-27.698h9.22c0,0,9.259,0,9.259,8.071c0,4.472-2.849,6.451-5.342,7.361
      l5.659,12.266h-5.104L123.882,262.268z M120.124,257.679h4.59c0,0,4.629,0,4.629-3.484c0-3.442-4.629-3.442-4.629-3.442h-4.59
      V257.679z"></path>
      <path d="M147.071,250.752v6.927h13.85v4.589h-13.85v6.924h13.85v4.63h-18.479v-27.698h18.479v4.629H147.071z"></path>
      <path d="M183.805,270.34h-9.378l-1.385,3.481h-4.986l11.041-27.698l11.079,27.698h-4.986L183.805,270.34z M181.985,265.75
      l-2.888-7.162l-2.849,7.162H181.985z"></path>
      <path d="M210.635,250.752h-6.925v23.069h-4.629v-23.069h-6.925v-4.629h18.479V250.752z"></path>
      <path d="M216.731,264.564v-18.44h4.629v18.44c0.238,3.205,2.811,4.628,5.738,4.628c2.889,0,5.777-1.542,5.777-4.628v-18.44h4.629
      v18.44c0,5.896-4.867,9.219-10.406,9.258C221.399,273.584,216.731,270.26,216.731,264.564z"></path>
      <path d="M253.698,262.268h-3.76v11.554h-4.629v-27.698h9.221c0,0,9.258,0,9.258,8.071c0,4.472-2.85,6.451-5.342,7.361
      l5.658,12.266H259L253.698,262.268z M249.938,257.679h4.592c0,0,4.629,0,4.629-3.484c0-3.442-4.629-3.442-4.629-3.442h-4.592
      V257.679z"></path>
      <path d="M276.18,250.752v6.927h13.85v4.589h-13.85v6.924h13.85v4.63h-18.48v-27.698h18.48v4.629H276.18z"></path>
      <path d="M297.165,265.75h4.631c0.078,2.295,1.979,3.441,4.037,3.441c2.135,0,4.035-1.266,4.035-3.441
      c0-2.335-2.176-3.403-4.035-3.482c-0.238,0-2.139,0-4.156-0.91c-2.889-1.345-4.512-3.878-4.512-7.163
      c0-4.905,4.195-8.071,8.668-8.071c4.787,0,8.545,3.362,8.625,8.071h-4.59c-0.08-2.295-1.939-3.442-4.035-3.442
      c-2.178,0-4.037,1.228-4.037,3.442c0,2.296,1.979,3.484,4.037,3.484c0.195,0,2.135,0,4.115,0.909
      c2.928,1.345,4.51,3.877,4.51,7.162c0,4.945-4.154,8.071-8.625,8.071C301.043,273.705,297.245,270.578,297.165,265.75z"></path>
      </g>
      <path d="M213.735,103.452l-6.549,39.071h-14.887l-6.55-39.071l-33.004,39.071l46.947,50.86l46.8-50.677l0.248-0.184
      L213.735,103.452z M183.049,113.3l4.896,29.223h-29.623L183.049,113.3z M187.207,162.697c-2.583,0-4.673-2.091-4.673-4.67
      c0-2.581,2.09-4.671,4.673-4.671c2.579,0,4.669,2.09,4.669,4.671C191.876,160.606,189.786,162.697,187.207,162.697z
      M212.646,162.697c-2.581,0-4.673-2.091-4.673-4.67c0-2.581,2.092-4.671,4.673-4.671c2.579,0,4.671,2.09,4.671,4.671
      C217.317,160.606,215.225,162.697,212.646,162.697z M211.538,142.523l4.9-29.223l24.871,29.223H211.538z"></path>
      </g>
    </svg>